<?xml version="1.0" encoding="iso-8859-1"?>
<!-- Generator: Adobe Illustrator 21.0.2, SVG Export Plug-In . SVG Version: 6.00 Build 0)  -->
<svg version="1.1" id="Layer_1" xmlns="http://www.w3.org/2000/svg" xmlns:xlink="http://www.w3.org/1999/xlink" x="0px" y="0px"
	 viewBox="0 0 618 372" style="enable-background:new 0 0 618 372;" xml:space="preserve">
<g>
	<g>
		<g>
			<path style="fill:#FFFFFF;" d="M17.69,148.098c17.619-0.411,35.195-1.153,52.787-2.193c1.964,26.107,3.927,52.214,5.892,78.321
				c1.32-0.09,1.98-0.136,3.299-0.229c7.555-26.828,15.095-53.66,22.623-80.496c18.253-1.659,36.466-3.563,54.672-5.674
				c-5.967,49.386-11.937,98.771-17.91,148.156c-4.242,2.351-12.31,4.602-19.795,5.591c-13.453,1.777-18.13-6.345-15.789-18.8
				c3.536-24.124,7.071-48.248,10.604-72.372c-1.225,0.116-1.838,0.173-3.063,0.287c-7.606,25.867-15.225,51.73-22.859,77.589
				c-0.942,0.308-10.898,3.852-18.381,4.588c-15.905,1.565-18.885-11.304-18.617-24.65c-1.178-17.777-2.357-35.553-3.535-53.33
				c-1.225,0.055-1.838,0.082-3.063,0.134c-2.906,30.276-5.812,60.552-8.719,90.828c-12.092,0.42-24.191,0.641-36.291,0.642
				C5.599,247.027,11.647,197.563,17.69,148.098z"/>
		</g>
		<g>
			<path style="fill:#FFFFFF;" d="M202.913,247.592c14.072-2.447,28.131-4.959,42.183-7.523c0.236,4.207,0.411,7.768,0.471,11.005
				c0.277,14.866-6.681,24.225-21.68,26.063c-13.817,1.982-27.639,3.898-41.476,5.737c-17.94,2.978-24.148-0.722-21.445-19.215
				c5.265-42.76,10.528-85.52,15.789-128.281c27.462-3.589,54.863-7.554,82.244-11.71c0.236,3.027,0.196,5.896,0.236,8.212
				c0.305,17.758-7.016,25.893-24.508,27.726c-8.578,1.174-12.867,1.751-21.445,2.874c-1.225,9.694-1.838,14.541-3.063,24.234
				c12.342-1.741,24.674-3.55,36.998-5.408c0.235,3.736,0.412,6.825,0.471,9.591c0.337,15.684-6.701,24.751-22.387,26.178
				c-7.541,1.002-11.312,1.494-18.853,2.453C205.269,228.882,204.091,238.237,202.913,247.592z"/>
		</g>
		<g>
			<path style="fill:#FFFFFF;" d="M275.258,123.284c5.891-2.563,16.301-5.368,22.858-6.63c17.36-3.341,17.051,8.68,14.847,22.887
				c-3.77,30.756-7.541,61.511-11.312,92.267c11.625-2.217,23.25-4.435,34.877-6.639c0.236,3.027,0.431,5.859,0.471,8.41
				c0.243,15.566-6.463,27.413-22.623,29.696c-19.006,2.982-38.013,5.954-57.029,8.873
				C263.319,222.527,269.289,172.905,275.258,123.284z"/>
		</g>
		<g>
			<path style="fill:#FFFFFF;" d="M458.362,149.185c-0.373,47.346-20.112,96.395-71.405,105.318
				c-33.22,5.779-44.53-27.71-44.539-54.286c-0.015-46.603,20.85-95.52,71.404-102.5
				C444.811,93.438,458.577,121.967,458.362,149.185z M417.593,158.467c0.218-7.939,0.338-26.627-12.49-24.885
				c-3.986,0.541-8.012,2.323-10.84,4.618c-8.264,16.533-10.704,37.29-11.076,55.116c-0.167,7.983,0.119,26.443,12.726,24.769
				c4.2-0.558,7.541-2.026,10.604-4.579C414.976,197.11,417.107,176.192,417.593,158.467z"/>
		</g>
		<g>
			<path style="fill:#FFFFFF;" d="M483.105,165.925c-8.72-2.364-12.255-6.421-12.255-10.427c0-2.121,0.942-4.35,2.828-6.448
				c5.185-6.709,12.726-16.939,13.433-22.669c-7.07,0.035-13.839-4.58-13.668-13.831c0.246-13.315,11.497-25.304,25.215-26.223
				c12.948-0.867,22.231,9.853,21.68,22.536c-0.986,22.679-16.926,44.677-35.348,57.568
				C484.753,166.456,483.105,165.925,483.105,165.925z"/>
		</g>
		<g>
			<path style="fill:#FFFFFF;" d="M582.079,81.817c12.135-0.404,25.053,0.778,36.292,5.721
				c-1.015,11.807-4.033,31.799-18.852,32.461c-6.421,0.287-13.197-3.719-22.623-3.35c-4.242,0.166-9.113,0.995-10.369,2.103
				c-1.411,1.245-2.356,4.593-2.356,7.421c0,5.42,2.592,8.976,16.731,14.598c18.717,5.947,30.473,20.16,30.636,39.638
				c0.257,30.816-29.085,54.369-57.265,55.646c-13.488,0.611-28.174,0.15-40.769-6.655c0.288-11.189,3.991-29.956,18.147-30.946
				c7.267-0.508,15.789,4.042,25.922,3.479c3.063-0.17,7.908-0.521,9.426-1.902c1.665-1.515,2.828-4.845,2.828-8.38
				c0-5.892-2.444-10.052-16.024-14.954c-16.835-6.078-30.646-20.558-30.399-39.101C523.812,106.74,552.065,82.817,582.079,81.817z"
				/>
		</g>
	</g>
</g>
<g>
	<g>
		<path style="fill:#BF9456;" d="M170.277,24.243c7-2.397,10.52-3.517,17.593-5.603c6.906-2.036,12.166,0.637,13.595,6.017
			c1.201,4.519-1.224,8.386-4.513,10.072c4.226-0.563,8.637,2.483,9.772,6.789c1.518,5.759-1.338,10.673-7.972,12.622
			c-6.613,1.943-9.904,2.989-16.448,5.229C178.295,47.66,174.286,35.952,170.277,24.243z M191.618,34.308
			c4.295-1.276,5.909-4.367,4.997-7.637c-0.898-3.217-3.985-5.148-8.405-3.835c-4.715,1.401-7.065,2.136-11.748,3.676
			c1.496,4.547,2.244,6.821,3.74,11.369C184.753,36.383,187.036,35.669,191.618,34.308z M196.656,50.464
			c4.285-1.27,6.171-4.317,5.116-8.126c-0.906-3.272-4.105-5.527-8.754-4.149c-4.627,1.372-6.933,2.093-11.528,3.604
			c1.6,4.865,2.4,7.297,4,12.162C189.94,52.491,192.174,51.793,196.656,50.464z"/>
		<path style="fill:#BF9456;" d="M249.571,34.491c-7.68,1.155-11.511,1.827-19.142,3.358c-0.684,3.498-1.012,5.247-1.639,8.746
			c-2.032,0.426-3.046,0.645-5.074,1.098c2.239-13.267,4.951-26.453,8.12-39.529c2.5-0.458,3.751-0.677,6.255-1.098
			c7.447,11.209,14.493,22.685,21.115,34.4c-2.052,0.263-3.078,0.402-5.127,0.692C252.303,39.081,251.401,37.548,249.571,34.491z
			 M230.987,33.538c6.595-1.299,9.904-1.88,16.536-2.902c-4.563-7.655-6.927-11.453-11.819-18.982
			C233.643,20.402,232.699,24.781,230.987,33.538z"/>
		<path style="fill:#BF9456;" d="M286.521,24.158c-3.094,0.171-4.641,0.272-7.732,0.502c0.439,5.884,0.658,8.826,1.097,14.71
			c-1.859,0.139-2.788,0.213-4.646,0.374c-1.067-12.33-2.134-24.66-3.202-36.99c6.568-0.568,9.856-0.789,16.437-1.104
			c7.489-0.359,12.913,3.919,13.035,10.765c0.119,6.679-4.605,10.431-9.886,11.102c4.452,5.872,6.601,8.839,10.742,14.826
			c-2.199,0.037-3.299,0.063-5.498,0.131C292.872,32.695,290.802,29.83,286.521,24.158z M288.064,5.794
			c-4.256,0.21-6.383,0.342-10.633,0.658c0.422,5.662,0.633,8.493,1.055,14.155c4.108-0.306,6.164-0.434,10.277-0.636
			c4.642-0.229,7.728-3.26,7.602-7.433S292.867,5.557,288.064,5.794z"/>
		<path style="fill:#BF9456;" d="M321.643,1.348c7.297,0.216,10.944,0.402,18.229,0.929c7.113,0.515,11.071,4.861,10.52,10.4
			c-0.463,4.653-4.067,7.425-7.708,7.85c4.118,0.954,7.155,5.353,6.706,9.783c-0.601,5.926-4.976,9.527-11.807,9.025
			c-6.809-0.5-10.219-0.675-17.04-0.877C320.909,26.089,321.276,13.719,321.643,1.348z M337.884,18.263
			c4.426,0.311,7.006-2.017,7.3-5.4c0.289-3.327-1.905-6.218-6.46-6.538c-4.859-0.342-7.29-0.478-12.155-0.68
			c-0.199,4.783-0.298,7.174-0.497,11.957C330.799,17.799,333.162,17.931,337.884,18.263z M336.921,35.16
			c4.415,0.313,7.231-1.879,7.581-5.816c0.301-3.382-1.884-6.615-6.675-6.955c-4.768-0.338-7.154-0.472-11.927-0.671
			c-0.213,5.117-0.319,7.675-0.532,12.792C329.992,34.702,332.303,34.832,336.921,35.16z"/>
		<path style="fill:#BF9456;" d="M372.398,5.886c10.649,1.596,15.958,2.562,26.515,4.831c-0.346,1.611-0.519,2.416-0.865,4.027
			c-8.47-1.82-12.724-2.621-21.255-4.004c-0.766,4.725-1.149,7.088-1.915,11.814c8.127,1.317,12.179,2.078,20.248,3.803
			c-0.345,1.611-0.517,2.417-0.861,4.028c-7.989-1.708-12-2.461-20.046-3.765c-0.819,5.055-1.229,7.583-2.048,12.638
			c7.95,1.288,11.914,2.035,19.807,3.731c-0.346,1.611-0.519,2.416-0.865,4.027c-9.642-2.072-14.49-2.954-24.216-4.412
			C368.73,30.365,370.564,18.125,372.398,5.886z"/>
		<path style="fill:#BF9456;" d="M425.353,40.59c-2.999-0.898-4.502-1.332-7.513-2.171c-1.583,5.684-2.375,8.526-3.958,14.21
			c-1.811-0.505-2.718-0.751-4.533-1.234c3.177-11.961,6.355-23.922,9.532-35.883c6.418,1.705,9.616,2.621,15.98,4.579
			c7.244,2.229,10.962,8.12,8.751,14.6c-2.157,6.322-7.938,8.224-13.19,7.045c2.239,7.049,3.277,10.577,5.19,17.633
			c-2.109-0.722-3.166-1.076-5.283-1.767C428.488,50.794,427.493,47.39,425.353,40.59z M433.062,23.848
			c-4.118-1.26-6.183-1.864-10.323-3.017c-1.524,5.47-2.285,8.204-3.809,13.674c4.002,1.115,5.998,1.698,9.978,2.916
			c4.491,1.375,8.462-0.415,9.76-4.382C439.967,29.071,437.709,25.27,433.062,23.848z"/>
	</g>
</g>
<g>
	<g>
		<path style="fill:#BF9456;" d="M214.489,348.479c1.77,3.459,5.395,7.323,11.164,8.955c7.304,2.067,10.526-0.892,11.21-3.647
			c1.072-4.322-3.476-6.738-8.261-9.461c-5.805-3.304-12.153-7.165-9.821-14.074c1.958-5.802,8.565-7.931,15.703-5.897
			c5.558,1.584,9.411,4.469,11.806,8.397c-1.428,1.063-2.149,1.589-3.603,2.633c-2.109-3.664-5.627-6.008-9.664-7.164
			c-4.424-1.267-8.276,0.001-9.338,3.344c-1.129,3.555,2.91,6.027,7.471,8.624c5.843,3.327,12.743,6.864,11.003,14.46
			c-1.206,5.263-6.619,9.871-17.814,6.695c-7.215-2.047-11.718-6.132-13.914-10.532C212.067,349.89,212.878,349.423,214.489,348.479
			z"/>
		<path style="fill:#BF9456;" d="M291.393,354.883c-9.407-0.566-14.106-1.039-23.456-2.364c-0.956,6.746-1.434,10.119-2.39,16.865
			c-2.106-0.298-3.158-0.457-5.259-0.791c1.947-12.222,3.894-24.444,5.84-36.666c1.849,0.295,2.775,0.434,4.628,0.696
			c-0.897,6.327-1.345,9.491-2.241,15.818c9.218,1.306,13.851,1.772,23.125,2.33c0.384-6.379,0.576-9.568,0.96-15.947
			c1.865,0.112,2.797,0.16,4.663,0.241c-0.532,12.365-1.063,24.729-1.595,37.094c-2.12-0.091-3.18-0.146-5.299-0.273
			C290.779,365.085,290.984,361.684,291.393,354.883z"/>
		<path style="fill:#BF9456;" d="M334.292,333.52c10.498-0.976,19.806,6.156,21.55,16.585c1.914,11.442-6.94,20.616-17.968,21.656
			c-11.043,1.041-21.403-6.357-21.648-17.944C316.004,343.257,323.78,334.497,334.292,333.52z M334.677,337.622
			c-8.516,0.798-13.657,7.345-13.285,16.021c0.369,8.62,6.651,14.903,16.099,14.018c9.384-0.879,14.47-8.227,13.232-16.765
			C349.475,342.301,343.136,336.829,334.677,337.622z"/>
		<path style="fill:#BF9456;" d="M371.13,328.124c5.907-1.386,8.848-2.162,14.69-3.881c7.304-2.149,12.992,1.239,14.957,6.979
			s-0.855,12.196-8.64,14.487c-4.364,1.284-6.556,1.883-10.955,2.996c1.446,5.72,2.169,8.581,3.616,14.301
			c-2.073,0.524-3.111,0.777-5.19,1.265C376.782,352.222,373.956,340.173,371.13,328.124z M386.43,328.356
			c-3.875,1.131-5.82,1.661-9.724,2.648c1.386,5.483,2.079,8.224,3.466,13.707c4.103-1.038,6.148-1.594,10.221-2.784
			c4.596-1.342,6.825-5.124,5.544-9.097C394.656,328.857,390.802,327.079,386.43,328.356z"/>
	</g>
</g>
</svg>
