<?xml version="1.0" encoding="iso-8859-1"?>
<!-- Generator: Adobe Illustrator 21.0.2, SVG Export Plug-In . SVG Version: 6.00 Build 0)  -->
<svg version="1.1" id="Layer_1" xmlns="http://www.w3.org/2000/svg" xmlns:xlink="http://www.w3.org/1999/xlink" x="0px" y="0px"
	 viewBox="0 0 407 517" style="enable-background:new 0 0 407 517;" xml:space="preserve">
<g id="scissors">
	<g>
		<g>
			<g>
				<g>
					<g>
						<path style="fill:#FFFFFF;" d="M86.291,516.823c-47.365,0-85.9-38.534-85.9-85.899s38.535-85.9,85.9-85.9
							c9.048,0,17.73,1.324,25.886,3.941l207.053-336.51c3.536-5.843,9.975-9.507,16.791-9.532c0.135-0.002,0.27-0.003,0.404-0.003
							c6.979,0,12.734,3.065,16.666,8.885c32.075,48.008,4.14,94.892,0.198,101.035l-95.3,169.661l39.691,65.886
							c7.686-2.3,15.737-3.463,24.011-3.463c22.97,0,44.556,8.957,60.782,25.221c16.186,16.223,25.07,37.742,25.018,60.595
							c0,47.35-38.535,85.884-85.9,85.884s-85.9-38.534-85.9-85.899c0-0.049,0-0.099,0-0.15l-27.749-59.058l-35.93,64.077
							c-1.152,21.581-10.342,41.742-25.995,56.94C129.885,508.197,108.674,516.823,86.291,516.823z M86.291,359.023
							c-39.646,0-71.9,32.254-71.9,71.9c0,39.646,32.254,71.899,71.9,71.899c38.319,0,70.531-31.147,71.804-69.433l0.057-1.704
							l50.889-90.755l40.75,86.729v2.256l-0.1,0.574c-0.001,0.075,0,0.151,0,0.232c0,39.646,32.254,71.899,71.9,71.899
							s71.9-32.254,71.9-71.899c0.044-19.124-7.389-37.12-20.929-50.691c-13.58-13.612-31.647-21.108-50.871-21.108
							c-8.592,0-16.871,1.494-24.609,4.441l-5.468,2.082l-49.821-82.701l99.629-177.337c2.896-4.456,27.496-44.714,0.049-85.797
							c-1.335-1.975-2.839-2.736-5.243-2.69l-0.137,0.001c-2.005,0-3.841,1.056-4.911,2.825L119.103,364.424h-5.474l-1.263-0.511
							C104.347,360.669,95.574,359.023,86.291,359.023z M249.678,430.566l-0.023,0.131
							C249.664,430.651,249.671,430.608,249.678,430.566z M321.691,490.523c-32.864,0-59.601-26.736-59.601-59.6
							c0-32.864,26.736-59.601,59.601-59.601c32.863,0,59.6,26.736,59.6,59.601C381.291,463.787,354.555,490.523,321.691,490.523z
							 M321.691,385.323c-25.145,0-45.601,20.456-45.601,45.601c0,25.144,20.456,45.6,45.601,45.6c25.144,0,45.6-20.456,45.6-45.6
							C367.291,405.779,346.835,385.323,321.691,385.323z M86.291,490.523c-32.864,0-59.6-26.736-59.6-59.6
							c0-32.864,26.736-59.601,59.6-59.601c30.913,0,56.996,24.098,59.379,54.859l0.021,0.469l0.2,4.272
							C145.891,463.787,119.155,490.523,86.291,490.523z M86.291,385.323c-25.144,0-45.6,20.456-45.6,45.601
							c0,25.144,20.456,45.6,45.6,45.6c25.089,0,45.51-20.367,45.6-45.435l-0.199-4.07
							C129.751,403.617,109.856,385.323,86.291,385.323z M203.891,295.724c-7.009,0-13.771-3.66-17.647-9.552l-0.104-0.163
							c-2.06-3.327-3.148-7.16-3.148-11.085c0-11.58,9.42-21,21-21c0.517,0,1.324,0,2.293,0.178
							c7.393,0.876,13.769,5.476,16.704,12.079l0,0.001c1.263,2.842,1.903,5.783,1.903,8.742c0,10.913-8.378,19.852-19.203,20.654
							C204.885,295.724,204.254,295.724,203.891,295.724z M197.993,278.556c1.217,1.797,3.215,2.965,5.333,3.144l0.09-0.03
							l0.992-0.04c3.635-0.147,6.483-3.093,6.483-6.706c0-0.988-0.234-2.016-0.696-3.057l0,0c-0.949-2.135-3.133-3.621-5.701-3.877
							l-0.565-0.065c-3.831,0.033-6.938,3.16-6.938,7C196.991,276.229,197.328,277.451,197.993,278.556z"/>
					</g>
				</g>
			</g>
		</g>
		<g>
			<g>
				<g>
					<g>
						<path style="fill:#FFFFFF;" d="M148.57,264.28l-94.03-151.77c-3.354-5.3-31.634-52.83,0.326-100.77
							c3.725-5.514,10.201-8.917,16.924-8.917c6.812,0,13.333,3.625,17.019,9.462l108.314,173.302l-9.864,16.094l-17.311,28.017
							l-7.577,12.461L148.57,264.28z M71.791,16.824c-2.071,0-4.201,1.093-5.3,2.719c-27.033,40.549-2.977,80.968-0.145,85.443
							l0.081,0.128l82.185,132.653l1.84-2.949l7.558-12.431l22.648-36.727L76.955,19.733C75.828,17.949,73.843,16.824,71.791,16.824
							z"/>
					</g>
				</g>
			</g>
		</g>
	</g>
</g>
</svg>
