<?xml version="1.0" encoding="iso-8859-1"?>
<!-- Generator: Adobe Illustrator 21.0.2, SVG Export Plug-In . SVG Version: 6.00 Build 0)  -->
<svg version="1.1" id="Layer_1" xmlns="http://www.w3.org/2000/svg" xmlns:xlink="http://www.w3.org/1999/xlink" x="0px" y="0px"
	 viewBox="0 0 280.919 333.579" style="enable-background:new 0 0 280.919 333.579;" xml:space="preserve">
<path style="display:none;fill:#FFA919;" d="M622.479,20.988c9.283-9.955,23.492-17.833,37.545-20.199L538.748-189l-27,161
	c4.754,0,4.886,4.083,6,4.134c14.259,0.643,21.321,2.046,34.118,8.689c0.356,0.185,0.705,0.37,1.056,0.566
	c1.932,1.08,12.571,8.688,14.188,10.197c0.664,0.619,1.287,1.237,1.898,1.911c7.694,8.499,15.36,17.013,22.262,26.199
	c0.953,1.268,1.887,2.551,2.816,3.836c3.389,1.163,6.711,2.612,9.964,4.35l7.448,5.35C614.477,31.129,618.248,25.525,622.479,20.988
	z"/>
<path style="display:none;fill:#F5820C;" d="M606.019-150L524.19-8.268c19.327,0.634,38.526,1.132,57.872,4.052
	c16.806,2.537,31.135,15.498,40.478,28.936c5.687,8.18,8.66,17.693,9.614,27.461h17.032c0.115-1.165,0.231-2.33,0.346-3.495
	c1.741-8.655,5.415-16.269,11.023-22.843c4.4-7.343,10.371-13.221,17.913-17.635c4.676-3.212,9.626-5.545,14.846-7.009L606.019-150z
	"/>
<linearGradient id="SVGID_1_" gradientUnits="userSpaceOnUse" x1="556.7606" y1="-100.484" x2="693.2322" y2="35.9876">
	<stop  offset="0" style="stop-color:#F5820C"/>
	<stop  offset="1" style="stop-color:#FFCB2D"/>
</linearGradient>
<path style="display:none;fill:url(#SVGID_1_);" d="M683.248-145.964l-29.842,46.701C639.695-106.746,623.969-111,607.248-111
	c-53.295,0-96.5,43.205-96.5,96.5s43.205,96.5,96.5,96.5s96.5-43.205,96.5-96.5c0-2.843-0.13-5.654-0.371-8.434
	C703.808-22.969,683.248-145.964,683.248-145.964z"/>
<g style="display:none;">
	<circle style="display:inline;fill:#FFA919;" cx="553.073" cy="342.65" r="119"/>
	<path style="display:inline;fill:#F5820C;" d="M434.073,342.65h238c0-65.722-53.278-119-119-119S434.073,276.928,434.073,342.65z"
		/>
</g>
<circle style="display:none;fill:#FFA50D;" cx="553.073" cy="342.65" r="81.3"/>
<rect x="319.573" y="301.15" transform="matrix(-0.7071 -0.7071 0.7071 -0.7071 701.8649 976.0219)" style="display:none;fill:#FFFFFF;" width="467" height="83"/>
<rect x="319.573" y="301.15" transform="matrix(-0.7071 0.7071 -0.7071 -0.7071 1186.4451 193.8583)" style="display:none;fill:#FFFFFF;" width="467" height="83"/>
<g style="display:none;">
	<path style="display:inline;fill:#DBE4ED;" d="M346.777,408.935c-2.942,2.942-5.092,6.377-6.451,10.038h9.798h6.691v-0.008
		l13.64,0.119l-0.043-0.022l0.064,0l-13.651-16.609l-0.026,0.036C353.144,403.849,349.715,405.997,346.777,408.935z"/>
	<path style="display:inline;fill:#DBE4ED;" d="M356.815,438.51h-0.044l0.119-13.604l-0.03,0.059l0.001-0.088l-16.609,13.651
		l0.111,0.08c1.361,3.624,3.498,7.024,6.414,9.94c2.942,2.942,6.377,5.092,10.038,6.451v-9.798V438.51z"/>
	<path style="display:inline;fill:#DBE4ED;" d="M376.352,417.588l-0.015,0.004l-0.119,15.011l0.017-0.014l0,0.03l0.025-0.051
		l16.542-13.596h0.04c-1.359-3.661-3.509-7.096-6.451-10.038c-2.942-2.942-6.377-5.092-10.038-6.451v9.798V417.588z"/>
</g>
<path style="fill:#DBE4ED;" d="M152.466,113.743l30.484,85.532l3.811,4.494l1.651-4.612l92.507-108.758L152.466,113.743z
	 M120.014,276.71l20.268,56.869l20.348-56.83l-20.331-3.725L120.014,276.71z M0,90.194l92.349,108.892l1.628,4.569l3.779-4.443
	l30.612-85.497L0,90.194z"/>
<polygon style="fill:#112236;" points="97.756,199.212 140.44,80 182.949,199.274 204.602,224.806 264.849,235.846 182.949,139.274 
	140.44,20 97.756,139.213 15.716,235.664 76.082,224.694 "/>
<polygon style="fill:#436280;" points="97.756,199.212 140.44,80 182.949,199.274 184.52,201.126 264.849,215.846 182.949,119.274 
	140.44,0 97.756,119.213 15.716,215.664 96.204,201.037 "/>
</svg>
